<svg width="221" height="114" viewBox="0 0 221 114" fill="none" xmlns="http://www.w3.org/2000/svg">
<g clip-path="url(#clip0_349_7982)">
<path fill-rule="evenodd" clip-rule="evenodd" d="M110.811 29.75L123.417 4.61824C124.844 1.76883 127.639 0.00219727 130.89 0.00219727H164.717C167.683 0.00219727 170.307 1.48389 171.847 3.99137C173.387 6.49885 173.501 9.46223 172.189 12.1407L144.694 67.0773C144.352 67.7041 143.725 68.1031 142.983 68.1031H86.6248C80.9205 68.1031 75.9577 65.0827 73.3908 59.9538L49.4328 12.1407C48.1208 9.46223 48.2349 6.49885 49.8321 3.99137C51.3722 1.48389 53.9391 0.00219727 56.9054 0.00219727H86.7959C92.5002 0.00219727 97.4629 3.07956 100.03 8.20849L110.811 29.75Z" fill="white"/>
<path opacity="0.8" fill-rule="evenodd" clip-rule="evenodd" d="M126.897 66.2226H142.983L170.478 11.229C171.505 9.17744 171.391 6.9549 170.193 5.0173C168.995 3.0797 166.998 1.93994 164.717 1.93994H148.973H139.789H130.89C128.38 1.93994 126.27 3.25067 125.129 5.5302L110.811 34.0813L94.7251 66.2226H126.897Z" fill="url(#paint0_linear_349_7982)" fill-opacity="0.7"/>
<path opacity="0.8" fill-rule="evenodd" clip-rule="evenodd" d="M94.725 66.2224H126.897L110.811 34.081L98.3187 9.06322C96.094 4.61814 91.8158 1.9397 86.796 1.9397H56.9055C54.6238 1.9397 52.6843 3.07946 51.4294 5.01706C50.2315 6.95466 50.1174 9.17719 51.1442 11.2288L75.1022 59.0988C77.3269 63.5439 81.6051 66.2224 86.6249 66.2224H94.725Z" fill="url(#paint1_linear_349_7982)" fill-opacity="0.7"/>
<path opacity="0.8" fill-rule="evenodd" clip-rule="evenodd" d="M144.98 1.93994L112.808 66.2226H126.897H142.984L170.478 11.229C171.505 9.17744 171.391 6.9549 170.193 5.0173C168.995 3.0797 166.999 1.93994 164.717 1.93994H148.973H144.98Z" fill="url(#paint2_linear_349_7982)" fill-opacity="0.7"/>
<path d="M126.897 68.1028H86.6248C83.7727 68.1028 81.0916 67.362 78.8099 65.9373C76.5282 64.5696 74.7028 62.518 73.3908 59.9535L49.4328 12.0834C48.8053 10.7727 48.4631 9.405 48.5772 7.9803C48.6342 6.61258 49.0335 5.24487 49.8321 3.99113C50.5737 2.73739 51.6575 1.76859 52.8554 1.08473C54.0533 0.40087 55.4223 0.00195312 56.9054 0.00195312H86.7959C89.6481 0.00195312 92.3291 0.799788 94.6108 2.22449C96.8925 3.59221 98.7179 5.64378 100.03 8.20825L110.811 29.8068L123.418 4.67498C124.102 3.19329 125.186 2.05353 126.498 1.25569C127.753 0.457859 129.293 0.00195312 130.89 0.00195312H164.717C166.2 0.00195312 167.569 0.40087 168.824 1.08473C170.022 1.76859 171.048 2.73739 171.847 3.99113C172.589 5.24487 173.045 6.61258 173.102 7.9803C173.159 9.405 172.874 10.7727 172.189 12.0834L144.752 66.9061C144.523 67.5899 143.782 68.1028 142.983 68.1028H126.897ZM94.7249 64.2846H123.817L96.6073 9.9179C95.6376 8.03729 94.2686 6.4986 92.5573 5.47282C90.903 4.44703 88.9636 3.87715 86.7959 3.87715H56.9054C56.1068 3.87715 55.3653 4.04811 54.7378 4.44703C54.0533 4.78896 53.5399 5.30185 53.0836 5.98571C52.6843 6.72656 52.4561 7.41042 52.399 8.15126C52.342 8.89211 52.5131 9.68994 52.9124 10.3738L76.8134 58.2439C77.7832 60.1245 79.1522 61.6632 80.8635 62.6889C82.5177 63.7147 84.4572 64.2846 86.6248 64.2846H94.7249ZM112.979 34.0809L119.881 47.872L141.899 3.87715H130.89C129.977 3.87715 129.179 4.1051 128.494 4.50402C127.81 4.95992 127.239 5.58679 126.84 6.38463L112.979 34.0809ZM121.991 52.1461L128.095 64.2846H141.785L168.767 10.3738C169.109 9.68994 169.28 8.89211 169.28 8.15126C169.223 7.41042 168.995 6.72656 168.538 5.98571C168.139 5.30185 167.569 4.78896 166.941 4.44703C166.314 4.04811 165.572 3.87715 164.717 3.87715H146.178L121.991 52.1461Z" fill="white"/>
</g>
<path d="M10.4065 113.64C10.0884 113.64 9.79926 113.524 9.53901 113.293C9.30768 113.062 9.14865 112.801 9.0619 112.512L0.0834122 81.7165C-0.0611689 81.196 -0.0177946 80.7478 0.213535 80.3719C0.444865 79.9671 0.806318 79.7646 1.29789 79.7646C1.58706 79.7646 1.83284 79.8369 2.03526 79.9815C2.26659 80.0972 2.44008 80.3574 2.55575 80.7623L10.927 109.736H9.88601L17.8669 81.89C17.9247 81.6587 18.0693 81.4707 18.3006 81.3261C18.5609 81.1526 18.8211 81.0659 19.0814 81.0659C19.3705 81.0659 19.6308 81.1526 19.8621 81.3261C20.0934 81.4707 20.2525 81.6731 20.3392 81.9334L28.3201 109.736H27.2791L35.6504 80.6321C35.7949 80.0538 36.2142 79.7646 36.9082 79.7646C37.3998 79.7646 37.7468 79.9526 37.9492 80.3285C38.1805 80.7044 38.2239 81.1671 38.0793 81.7165L29.1442 112.512C29.0285 112.888 28.8406 113.177 28.5803 113.38C28.349 113.553 28.0888 113.64 27.7996 113.64C27.4526 113.64 27.1634 113.539 26.9321 113.336C26.7008 113.105 26.5417 112.83 26.455 112.512L18.5609 84.5792H19.6019L11.7945 112.512C11.6788 112.859 11.4909 113.134 11.2306 113.336C10.9993 113.539 10.7246 113.64 10.4065 113.64Z" fill="white"/>
<path d="M49.4488 113.9C47.1355 113.9 45.0536 113.38 43.2029 112.339C41.3812 111.269 39.9354 109.823 38.8655 108.001C37.8245 106.151 37.304 104.083 37.304 101.799C37.304 99.4855 37.8245 97.418 38.8655 95.5963C39.9354 93.7456 41.3812 92.2998 43.2029 91.2588C45.0536 90.1889 47.1355 89.654 49.4488 89.654C51.7621 89.654 53.8296 90.1889 55.6513 91.2588C57.4731 92.2998 58.9044 93.7456 59.9454 95.5963C61.0153 97.418 61.5502 99.4855 61.5502 101.799L60.4659 103.534C60.4659 105.5 59.9743 107.264 58.9912 108.825C58.0369 110.387 56.7357 111.63 55.0875 112.556C53.4393 113.452 51.5597 113.9 49.4488 113.9ZM49.4488 111.471C51.2705 111.471 52.8898 111.052 54.3067 110.213C55.7525 109.346 56.8803 108.189 57.6899 106.743C58.5285 105.269 58.9478 103.621 58.9478 101.799C58.9478 99.9482 58.5285 98.2999 57.6899 96.8541C56.8803 95.3794 55.7525 94.2228 54.3067 93.3842C52.8898 92.5167 51.2705 92.083 49.4488 92.083C47.656 92.083 46.0367 92.5167 44.5909 93.3842C43.1451 94.2228 42.0029 95.3794 41.1643 96.8541C40.3257 98.2999 39.9065 99.9482 39.9065 101.799C39.9065 103.621 40.3257 105.269 41.1643 106.743C42.0029 108.189 43.1451 109.346 44.5909 110.213C46.0367 111.052 47.656 111.471 49.4488 111.471ZM60.2924 113.64C59.8876 113.64 59.555 113.524 59.2948 113.293C59.0635 113.033 58.9478 112.715 58.9478 112.339V104.401L59.7719 101.799H61.5502V112.339C61.5502 112.715 61.4346 113.033 61.2033 113.293C60.9719 113.524 60.6683 113.64 60.2924 113.64Z" fill="white"/>
<path d="M72.815 113.64C71.7162 113.64 70.7331 113.336 69.8656 112.729C69.027 112.122 68.3619 111.283 67.8704 110.213C67.4077 109.144 67.1764 107.9 67.1764 106.483V81.0659C67.1764 80.661 67.292 80.343 67.5234 80.1116C67.7836 79.8803 68.1017 79.7646 68.4776 79.7646C68.8824 79.7646 69.2005 79.8803 69.4318 80.1116C69.6632 80.343 69.7788 80.661 69.7788 81.0659V106.483C69.7788 107.813 70.0535 108.912 70.6029 109.78C71.1813 110.618 71.9186 111.038 72.815 111.038H73.8994C74.2175 111.038 74.4777 111.153 74.6801 111.385C74.8825 111.616 74.9837 111.934 74.9837 112.339C74.9837 112.715 74.8681 113.033 74.6368 113.293C74.4054 113.524 74.0873 113.64 73.6825 113.64H72.815Z" fill="white"/>
<path d="M84.5058 113.64C83.407 113.64 82.4238 113.336 81.5563 112.729C80.7177 112.122 80.0527 111.283 79.5611 110.213C79.0984 109.144 78.8671 107.9 78.8671 106.483V81.0659C78.8671 80.661 78.9828 80.343 79.2141 80.1116C79.4743 79.8803 79.7924 79.7646 80.1683 79.7646C80.5732 79.7646 80.8912 79.8803 81.1226 80.1116C81.3539 80.343 81.4696 80.661 81.4696 81.0659V106.483C81.4696 107.813 81.7443 108.912 82.2937 109.78C82.872 110.618 83.6094 111.038 84.5058 111.038H85.5901C85.9082 111.038 86.1684 111.153 86.3709 111.385C86.5733 111.616 86.6745 111.934 86.6745 112.339C86.6745 112.715 86.5588 113.033 86.3275 113.293C86.0962 113.524 85.7781 113.64 85.3733 113.64H84.5058Z" fill="white"/>
<path d="M100.609 113.857C98.3244 113.857 96.2859 113.351 94.493 112.339C92.7292 111.298 91.3412 109.866 90.3291 108.045C89.317 106.223 88.811 104.141 88.811 101.799C88.811 99.4277 89.2881 97.3457 90.2424 95.5529C91.1966 93.7312 92.5123 92.2998 94.1894 91.2588C95.8666 90.2179 97.7895 89.6974 99.9582 89.6974C102.098 89.6974 103.992 90.2034 105.64 91.2155C107.288 92.1986 108.575 93.5721 109.501 95.336C110.426 97.071 110.889 99.0807 110.889 101.365C110.889 101.741 110.773 102.045 110.542 102.276C110.31 102.478 110.007 102.58 109.631 102.58H90.546V100.324H110.325L108.416 101.755C108.474 99.8759 108.156 98.2132 107.462 96.7674C106.768 95.3216 105.77 94.1938 104.469 93.3842C103.197 92.5456 101.693 92.1263 99.9582 92.1263C98.31 92.1263 96.8353 92.5456 95.534 93.3842C94.2617 94.1938 93.2496 95.3216 92.4978 96.7674C91.7749 98.2132 91.4135 99.8903 91.4135 101.799C91.4135 103.678 91.8038 105.341 92.5846 106.787C93.3653 108.233 94.4497 109.375 95.8377 110.213C97.2256 111.023 98.816 111.428 100.609 111.428C101.737 111.428 102.864 111.24 103.992 110.864C105.149 110.459 106.06 109.939 106.725 109.303C106.956 109.071 107.231 108.956 107.549 108.956C107.896 108.927 108.185 109.013 108.416 109.216C108.734 109.476 108.893 109.765 108.893 110.083C108.922 110.401 108.792 110.691 108.503 110.951C107.578 111.789 106.363 112.483 104.86 113.033C103.385 113.582 101.968 113.857 100.609 113.857Z" fill="white"/>
<path d="M126.259 113.64C124.669 113.611 123.252 113.25 122.009 112.556C120.765 111.833 119.797 110.85 119.103 109.606C118.409 108.334 118.062 106.903 118.062 105.312V83.7117C118.062 83.3069 118.177 82.9888 118.409 82.7575C118.669 82.4972 118.987 82.3671 119.363 82.3671C119.768 82.3671 120.086 82.4972 120.317 82.7575C120.577 82.9888 120.707 83.3069 120.707 83.7117V105.312C120.707 106.989 121.228 108.363 122.269 109.433C123.31 110.474 124.654 110.994 126.303 110.994H127.257C127.662 110.994 127.98 111.124 128.211 111.385C128.471 111.616 128.602 111.934 128.602 112.339C128.602 112.715 128.471 113.033 128.211 113.293C127.98 113.524 127.662 113.64 127.257 113.64H126.259ZM114.678 93.1239C114.331 93.1239 114.042 93.0227 113.811 92.8203C113.608 92.589 113.507 92.2998 113.507 91.9528C113.507 91.6058 113.608 91.3311 113.811 91.1287C114.042 90.8974 114.331 90.7817 114.678 90.7817H126.433C126.78 90.7817 127.055 90.8974 127.257 91.1287C127.488 91.3311 127.604 91.6058 127.604 91.9528C127.604 92.2998 127.488 92.589 127.257 92.8203C127.055 93.0227 126.78 93.1239 126.433 93.1239H114.678Z" fill="white"/>
<path d="M148.87 113.64C148.378 113.64 147.973 113.539 147.655 113.336C147.337 113.105 147.178 112.773 147.178 112.339V81.0659C147.178 80.661 147.294 80.343 147.525 80.1116C147.786 79.8803 148.104 79.7646 148.479 79.7646H159.106C160.726 79.7646 162.2 80.1261 163.53 80.849C164.861 81.543 165.93 82.5117 166.74 83.7551C167.55 84.9696 167.955 86.372 167.955 87.9624C167.955 89.6395 167.506 91.1143 166.61 92.3866C165.742 93.63 164.6 94.5697 163.183 95.2059C165.15 95.7553 166.726 96.7674 167.911 98.2421C169.126 99.7168 169.733 101.567 169.733 103.794C169.733 105.702 169.299 107.409 168.432 108.912C167.593 110.387 166.422 111.544 164.918 112.382C163.415 113.221 161.694 113.64 159.757 113.64H148.87ZM149.781 111.038H159.757C161.203 111.038 162.475 110.734 163.574 110.127C164.673 109.491 165.54 108.637 166.176 107.568C166.812 106.469 167.13 105.211 167.13 103.794C167.13 102.406 166.812 101.177 166.176 100.107C165.54 99.0373 164.673 98.1987 163.574 97.5915C162.475 96.9843 161.203 96.6806 159.757 96.6806H149.781V111.038ZM149.781 94.0782H159.106C160.928 94.0782 162.417 93.5288 163.574 92.4299C164.759 91.3022 165.352 89.813 165.352 87.9624C165.352 86.1696 164.759 84.7961 163.574 83.8418C162.417 82.8587 160.928 82.3671 159.106 82.3671H149.781V94.0782Z" fill="white"/>
<path d="M186.857 113.9C184.544 113.9 182.462 113.38 180.611 112.339C178.79 111.269 177.344 109.823 176.274 108.001C175.233 106.151 174.712 104.083 174.712 101.799C174.712 99.4855 175.233 97.418 176.274 95.5963C177.344 93.7456 178.79 92.2998 180.611 91.2588C182.462 90.1889 184.544 89.654 186.857 89.654C189.171 89.654 191.238 90.1889 193.06 91.2588C194.882 92.2998 196.313 93.7456 197.354 95.5963C198.424 97.418 198.959 99.4855 198.959 101.799C198.959 104.083 198.424 106.151 197.354 108.001C196.313 109.823 194.882 111.269 193.06 112.339C191.238 113.38 189.171 113.9 186.857 113.9ZM186.857 111.471C188.679 111.471 190.298 111.052 191.715 110.213C193.161 109.346 194.289 108.189 195.098 106.743C195.937 105.269 196.356 103.606 196.356 101.755C196.356 99.9337 195.937 98.2999 195.098 96.8541C194.289 95.3794 193.161 94.2228 191.715 93.3842C190.298 92.5167 188.679 92.083 186.857 92.083C185.064 92.083 183.445 92.5167 181.999 93.3842C180.554 94.2228 179.411 95.3794 178.573 96.8541C177.734 98.2999 177.315 99.9482 177.315 101.799C177.315 103.621 177.734 105.269 178.573 106.743C179.411 108.189 180.554 109.346 181.999 110.213C183.445 111.052 185.064 111.471 186.857 111.471Z" fill="white"/>
<path d="M219.774 113.64C219.427 113.64 219.153 113.582 218.95 113.466C218.748 113.322 218.531 113.105 218.3 112.816L210.839 102.927L209.755 102.102L202.164 92.083C201.933 91.7938 201.832 91.4902 201.861 91.1721C201.89 90.8251 202.02 90.5359 202.251 90.3046C202.482 90.0444 202.786 89.9142 203.162 89.9142C203.538 89.9142 203.856 90.0444 204.116 90.3046L211.36 99.9337L212.531 100.845L220.555 111.515C220.931 111.977 221.061 112.368 220.945 112.686C220.859 113.004 220.685 113.25 220.425 113.423C220.165 113.568 219.948 113.64 219.774 113.64ZM202.208 113.64C201.832 113.64 201.528 113.524 201.297 113.293C201.066 113.062 200.935 112.787 200.907 112.469C200.878 112.122 200.979 111.804 201.21 111.515L209.625 101.061L211.143 102.97L203.119 113.25C202.945 113.51 202.641 113.64 202.208 113.64ZM211.967 102.276L210.405 100.367L218.3 90.695C218.531 90.4347 218.748 90.2468 218.95 90.1311C219.182 89.9865 219.413 89.9142 219.644 89.9142C220.049 89.9142 220.353 90.0444 220.555 90.3046C220.757 90.5359 220.859 90.8251 220.859 91.1721C220.859 91.4902 220.743 91.7938 220.512 92.083L211.967 102.276Z" fill="white"/>
<defs>
<linearGradient id="paint0_linear_349_7982" x1="94.748" y1="34.0774" x2="171.182" y2="34.0774" gradientUnits="userSpaceOnUse">
<stop stop-color="#BF38FF"/>
<stop offset="1" stop-color="#336CFF"/>
</linearGradient>
<linearGradient id="paint1_linear_349_7982" x1="50.4687" y1="34.0772" x2="126.903" y2="34.0772" gradientUnits="userSpaceOnUse">
<stop stop-color="#BF38FF"/>
<stop offset="1" stop-color="#336CFF"/>
</linearGradient>
<linearGradient id="paint2_linear_349_7982" x1="112.825" y1="34.0774" x2="171.181" y2="34.0774" gradientUnits="userSpaceOnUse">
<stop stop-color="#BF38FF"/>
<stop offset="1" stop-color="#336CFF"/>
</linearGradient>
<clipPath id="clip0_349_7982">
<rect width="124.639" height="68.1619" fill="white" transform="translate(48.52)"/>
</clipPath>
</defs>
</svg>
